<mxfile host="Electron" agent="Mozilla/5.0 (Macintosh; Intel Mac OS X 10_15_7) AppleWebKit/537.36 (KHTML, like Gecko) draw.io/24.7.17 Chrome/128.0.6613.36 Electron/32.0.1 Safari/537.36" version="24.7.17">
  <diagram name="Page-1" id="03018318-947c-dd8e-b7a3-06fadd420f32">
    <mxGraphModel dx="1114" dy="999" grid="1" gridSize="10" guides="1" tooltips="1" connect="1" arrows="1" fold="1" page="1" pageScale="1" pageWidth="1100" pageHeight="850" background="none" math="0" shadow="0">
      <root>
        <mxCell id="0" />
        <mxCell id="1" parent="0" />
        <mxCell id="677b7b8949515195-15" value="&lt;font style=&quot;font-size: 18px;&quot;&gt;&lt;b&gt;The About and Contact links will launch a modal dialog&lt;/b&gt;&lt;/font&gt;" style="whiteSpace=wrap;html=1;rounded=0;shadow=0;labelBackgroundColor=none;strokeWidth=1;fillColor=none;fontFamily=Verdana;fontSize=12;align=center;verticalAlign=top;spacing=10;comic=1;" parent="1" vertex="1">
          <mxGeometry x="20" y="30" width="360" height="240" as="geometry" />
        </mxCell>
        <mxCell id="677b7b8949515195-2" value="LOGO" style="whiteSpace=wrap;html=1;rounded=0;shadow=0;labelBackgroundColor=none;strokeWidth=1;fontFamily=Verdana;fontSize=28;align=center;comic=1;" parent="1" vertex="1">
          <mxGeometry x="90" y="110" width="210" height="50" as="geometry" />
        </mxCell>
        <mxCell id="bn-o1jzMvr0Oua4psibJ-12" value="&lt;font style=&quot;font-size: 19px;&quot;&gt;&lt;b&gt;Fixed menu bar&lt;/b&gt;&lt;/font&gt;" style="whiteSpace=wrap;html=1;rounded=0;shadow=0;labelBackgroundColor=none;strokeWidth=1;fillColor=none;fontFamily=Verdana;fontSize=12;align=center;verticalAlign=top;spacing=10;comic=1;" parent="1" vertex="1">
          <mxGeometry x="20" y="290" width="360" height="190" as="geometry" />
        </mxCell>
        <mxCell id="bn-o1jzMvr0Oua4psibJ-23" value="" style="whiteSpace=wrap;html=1;rounded=0;shadow=0;labelBackgroundColor=none;strokeWidth=1;fillColor=none;fontFamily=Verdana;fontSize=12;align=center;verticalAlign=top;spacing=10;comic=1;" parent="1" vertex="1">
          <mxGeometry x="20" y="490" width="360" height="660" as="geometry" />
        </mxCell>
        <mxCell id="bn-o1jzMvr0Oua4psibJ-53" value="About" style="shape=rectangle;strokeColor=none;fillColor=none;linkText=;fontSize=17;fontColor=#0000ff;fontStyle=4;html=1;align=center;" parent="1" vertex="1">
          <mxGeometry x="150" y="180" width="80" height="30" as="geometry" />
        </mxCell>
        <mxCell id="bn-o1jzMvr0Oua4psibJ-54" value="Contact" style="shape=rectangle;strokeColor=none;fillColor=none;linkText=;fontSize=17;fontColor=#0000ff;fontStyle=4;html=1;align=center;" parent="1" vertex="1">
          <mxGeometry x="130" y="220" width="125" height="30" as="geometry" />
        </mxCell>
        <mxCell id="bv2lxj22GfZCS5aB3f3w-4" value="Search query" style="whiteSpace=wrap;html=1;rounded=0;shadow=0;labelBackgroundColor=none;strokeWidth=1;fontFamily=Verdana;fontSize=18;align=left;comic=1;" parent="1" vertex="1">
          <mxGeometry x="45" y="310" width="310" height="35" as="geometry" />
        </mxCell>
        <mxCell id="bv2lxj22GfZCS5aB3f3w-7" value="# of Gifs" style="whiteSpace=wrap;html=1;rounded=0;shadow=0;labelBackgroundColor=none;strokeWidth=1;fontFamily=Verdana;fontSize=18;align=left;comic=1;" parent="1" vertex="1">
          <mxGeometry x="155" y="430" width="90" height="35" as="geometry" />
        </mxCell>
        <mxCell id="bv2lxj22GfZCS5aB3f3w-8" value="Submit" style="rounded=1;fillColor=#0057D8;align=center;strokeColor=none;html=1;whiteSpace=wrap;fontColor=#ffffff;fontSize=12;sketch=0;" parent="1" vertex="1">
          <mxGeometry x="160" y="368.5" width="80" height="33" as="geometry" />
        </mxCell>
        <mxCell id="bv2lxj22GfZCS5aB3f3w-10" value="" style="sketch=0;outlineConnect=0;fontColor=#232F3E;gradientColor=none;fillColor=#ED7100;strokeColor=none;dashed=0;verticalLabelPosition=bottom;verticalAlign=top;align=center;html=1;fontSize=12;fontStyle=0;aspect=fixed;pointerEvents=1;shape=mxgraph.aws4.container_registry_image;" parent="1" vertex="1">
          <mxGeometry x="100" y="720" width="190" height="190" as="geometry" />
        </mxCell>
        <mxCell id="bv2lxj22GfZCS5aB3f3w-11" value="" style="sketch=0;outlineConnect=0;fontColor=#232F3E;gradientColor=none;fillColor=#ED7100;strokeColor=none;dashed=0;verticalLabelPosition=bottom;verticalAlign=top;align=center;html=1;fontSize=12;fontStyle=0;aspect=fixed;pointerEvents=1;shape=mxgraph.aws4.container_registry_image;" parent="1" vertex="1">
          <mxGeometry x="100" y="510" width="190" height="190" as="geometry" />
        </mxCell>
        <mxCell id="bv2lxj22GfZCS5aB3f3w-12" value="" style="sketch=0;outlineConnect=0;fontColor=#232F3E;gradientColor=none;fillColor=#ED7100;strokeColor=none;dashed=0;verticalLabelPosition=bottom;verticalAlign=top;align=center;html=1;fontSize=12;fontStyle=0;aspect=fixed;pointerEvents=1;shape=mxgraph.aws4.container_registry_image;" parent="1" vertex="1">
          <mxGeometry x="95" y="940" width="190" height="190" as="geometry" />
        </mxCell>
      </root>
    </mxGraphModel>
  </diagram>
</mxfile>
